<svg xmlns="http://www.w3.org/2000/svg" xmlns:xlink="http://www.w3.org/1999/xlink" width="500" zoomAndPan="magnify" viewBox="0 0 375 374.999991" height="500" preserveAspectRatio="xMidYMid meet" version="1.0"><defs><g/><clipPath id="f3db70c4ab"><path d="M 249.617188 174.710938 L 284.867188 174.710938 L 284.867188 223.460938 L 249.617188 223.460938 Z M 249.617188 174.710938 " clip-rule="nonzero"/></clipPath><clipPath id="e1869e53f1"><path d="M 252.375 177.574219 L 282.375 177.574219 L 282.375 207.574219 L 252.375 207.574219 Z M 252.375 177.574219 " clip-rule="nonzero"/></clipPath><clipPath id="b6f840824a"><path d="M 253.84375 179.042969 L 280.84375 179.042969 L 280.84375 206.042969 L 253.84375 206.042969 Z M 253.84375 179.042969 " clip-rule="nonzero"/></clipPath><clipPath id="413569a58f"><path d="M 257.519531 182.964844 L 277 182.964844 L 277 202.464844 L 257.519531 202.464844 Z M 257.519531 182.964844 " clip-rule="nonzero"/></clipPath></defs><rect x="-37.5" width="450" fill="#ffffff" y="-37.499999" height="449.999989" fill-opacity="1"/><rect x="-37.5" width="450" fill="#63c6bc" y="-37.499999" height="449.999989" fill-opacity="1"/><g clip-path="url(#f3db70c4ab)"><path fill="#171717" d="M 267.230469 206.664062 C 259.300781 206.664062 252.871094 200.238281 252.871094 192.308594 C 252.871094 184.378906 259.300781 177.953125 267.230469 177.953125 C 275.15625 177.953125 281.585938 184.378906 281.585938 192.308594 C 281.585938 200.238281 275.15625 206.664062 267.230469 206.664062 Z M 284.828125 192.308594 C 284.828125 182.589844 276.949219 174.710938 267.230469 174.710938 C 257.507812 174.710938 249.628906 182.589844 249.628906 192.308594 C 249.628906 198.488281 252.816406 203.925781 257.632812 207.066406 C 257.632812 207.066406 257.636719 207.066406 257.640625 207.070312 C 257.648438 207.074219 257.65625 207.078125 257.664062 207.085938 C 258.238281 207.464844 267.230469 213.578125 267.230469 223.203125 C 267.230469 213.257812 276.824219 207.066406 276.824219 207.066406 C 281.640625 203.925781 284.828125 198.488281 284.828125 192.308594 " fill-opacity="1" fill-rule="nonzero"/></g><g clip-path="url(#e1869e53f1)"><path fill="#171717" d="M 267.21875 177.570312 C 259.03125 177.570312 252.371094 184.230469 252.371094 192.417969 C 252.371094 200.601562 259.03125 207.265625 267.21875 207.265625 C 275.40625 207.265625 282.066406 200.601562 282.066406 192.417969 C 282.066406 184.230469 275.40625 177.570312 267.21875 177.570312 Z M 267.21875 205.40625 C 260.054688 205.40625 254.226562 199.578125 254.226562 192.417969 C 254.226562 185.253906 260.054688 179.425781 267.21875 179.425781 C 274.382812 179.425781 280.210938 185.253906 280.210938 192.417969 C 280.210938 199.578125 274.382812 205.40625 267.21875 205.40625 Z M 267.21875 205.40625 " fill-opacity="1" fill-rule="nonzero"/></g><g fill="#171717" fill-opacity="1"><g transform="translate(36.258287, 204.864404)"><g><path d="M 36.078125 -30.03125 C 41.804688 -30.03125 46.109375 -28.671875 48.984375 -25.953125 C 51.867188 -23.234375 53.3125 -19.515625 53.3125 -14.796875 L 53.3125 -14.03125 C 53.3125 -9.320312 51.914062 -5.601562 49.125 -2.875 C 46.332031 -0.15625 42.398438 1.203125 37.328125 1.203125 C 31.703125 1.203125 27.617188 -0.335938 25.078125 -3.421875 L 25.078125 10.875 L 1.421875 10.875 L 1.421875 -28.828125 L 11.75 -28.828125 L 19.265625 -20.015625 C 20.171875 -23.097656 22.023438 -25.535156 24.828125 -27.328125 C 27.640625 -29.128906 31.390625 -30.03125 36.078125 -30.03125 Z M 27.359375 -12.125 C 28.890625 -12.125 29.65625 -12.890625 29.65625 -14.421875 C 29.65625 -15.941406 28.890625 -16.703125 27.359375 -16.703125 C 25.835938 -16.703125 25.078125 -15.941406 25.078125 -14.421875 C 25.078125 -12.890625 25.835938 -12.125 27.359375 -12.125 Z M 27.359375 -12.125 "/></g></g></g><g fill="#171717" fill-opacity="1"><g transform="translate(90.271483, 204.864404)"><g><path d="M 25.953125 -38.078125 C 25.953125 -39.460938 25.5625 -40.695312 24.78125 -41.78125 C 24 -42.875 22.691406 -43.726562 20.859375 -44.34375 C 19.035156 -44.957031 16.507812 -45.265625 13.28125 -45.265625 C 10.082031 -45.265625 7.566406 -44.957031 5.734375 -44.34375 C 3.910156 -43.726562 2.609375 -42.875 1.828125 -41.78125 C 1.046875 -40.695312 0.65625 -39.460938 0.65625 -38.078125 C 0.65625 -36.742188 1.046875 -35.519531 1.828125 -34.40625 C 2.609375 -33.300781 3.910156 -32.429688 5.734375 -31.796875 C 7.566406 -31.160156 10.082031 -30.84375 13.28125 -30.84375 C 16.507812 -30.84375 19.035156 -31.160156 20.859375 -31.796875 C 22.691406 -32.429688 24 -33.300781 24.78125 -34.40625 C 25.5625 -35.519531 25.953125 -36.742188 25.953125 -38.078125 Z M 25.078125 0 L 1.421875 0 L 1.421875 -28.828125 L 25.078125 -28.828125 Z M 25.078125 0 "/></g></g></g><g fill="#171717" fill-opacity="1"><g transform="translate(116.706937, 204.864404)"><g><path d="M 35.53125 -30.03125 C 46.300781 -30.03125 51.6875 -24.519531 51.6875 -13.5 L 51.6875 0 L 28.015625 0 L 28.015625 -12.03125 C 28.015625 -13.1875 27.523438 -13.765625 26.546875 -13.765625 C 25.566406 -13.765625 25.078125 -13.1875 25.078125 -12.03125 L 25.078125 0 L 1.421875 0 L 1.421875 -28.828125 L 11.75 -28.828125 L 19.859375 -19.59375 C 20.867188 -23.101562 22.695312 -25.71875 25.34375 -27.4375 C 28 -29.164062 31.394531 -30.03125 35.53125 -30.03125 Z M 35.53125 -30.03125 "/></g></g></g><g fill="#171717" fill-opacity="1"><g transform="translate(169.577862, 204.864404)"><g><path d="M 35.53125 -30.03125 C 46.300781 -30.03125 51.6875 -24.519531 51.6875 -13.5 L 51.6875 0 L 28.015625 0 L 28.015625 -12.03125 C 28.015625 -13.1875 27.523438 -13.765625 26.546875 -13.765625 C 25.566406 -13.765625 25.078125 -13.1875 25.078125 -12.03125 L 25.078125 0 L 1.421875 0 L 1.421875 -28.828125 L 11.75 -28.828125 L 19.859375 -19.59375 C 20.867188 -23.101562 22.695312 -25.71875 25.34375 -27.4375 C 28 -29.164062 31.394531 -30.03125 35.53125 -30.03125 Z M 35.53125 -30.03125 "/></g></g></g><g fill="#171717" fill-opacity="1"><g transform="translate(222.448787, 204.864404)"><g><path d="M 25.953125 -38.078125 C 25.953125 -39.460938 25.5625 -40.695312 24.78125 -41.78125 C 24 -42.875 22.691406 -43.726562 20.859375 -44.34375 C 19.035156 -44.957031 16.507812 -45.265625 13.28125 -45.265625 C 10.082031 -45.265625 7.566406 -44.957031 5.734375 -44.34375 C 3.910156 -43.726562 2.609375 -42.875 1.828125 -41.78125 C 1.046875 -40.695312 0.65625 -39.460938 0.65625 -38.078125 C 0.65625 -36.742188 1.046875 -35.519531 1.828125 -34.40625 C 2.609375 -33.300781 3.910156 -32.429688 5.734375 -31.796875 C 7.566406 -31.160156 10.082031 -30.84375 13.28125 -30.84375 C 16.507812 -30.84375 19.035156 -31.160156 20.859375 -31.796875 C 22.691406 -32.429688 24 -33.300781 24.78125 -34.40625 C 25.5625 -35.519531 25.953125 -36.742188 25.953125 -38.078125 Z M 25.078125 0 L 1.421875 0 L 1.421875 -28.828125 L 25.078125 -28.828125 Z M 25.078125 0 "/></g></g></g><g fill="#171717" fill-opacity="1"><g transform="translate(248.89665, 204.864404)"><g/></g></g><g fill="#171717" fill-opacity="1"><g transform="translate(267.336191, 204.864404)"><g/></g></g><g fill="#171717" fill-opacity="1"><g transform="translate(285.785435, 204.864404)"><g><path d="M 35.53125 -30.03125 C 46.300781 -30.03125 51.6875 -24.519531 51.6875 -13.5 L 51.6875 0 L 28.015625 0 L 28.015625 -12.03125 C 28.015625 -13.1875 27.523438 -13.765625 26.546875 -13.765625 C 25.566406 -13.765625 25.078125 -13.1875 25.078125 -12.03125 L 25.078125 0 L 1.421875 0 L 1.421875 -28.828125 L 11.75 -28.828125 L 19.859375 -19.59375 C 20.867188 -23.101562 22.695312 -25.71875 25.34375 -27.4375 C 28 -29.164062 31.394531 -30.03125 35.53125 -30.03125 Z M 35.53125 -30.03125 "/></g></g></g><g clip-path="url(#b6f840824a)"><path fill="#171717" d="M 267.46875 179.039062 C 259.953125 179.039062 253.839844 185.152344 253.839844 192.664062 C 253.839844 200.179688 259.953125 206.292969 267.46875 206.292969 C 274.980469 206.292969 281.097656 200.179688 281.097656 192.664062 C 281.097656 185.152344 274.980469 179.039062 267.46875 179.039062 Z M 267.46875 204.589844 C 260.890625 204.589844 255.542969 199.238281 255.542969 192.664062 C 255.542969 186.09375 260.890625 180.742188 267.46875 180.742188 C 274.042969 180.742188 279.390625 186.09375 279.390625 192.664062 C 279.390625 199.238281 274.042969 204.589844 267.46875 204.589844 Z M 267.46875 204.589844 " fill-opacity="1" fill-rule="nonzero"/></g><g clip-path="url(#413569a58f)"><path fill="#171717" d="M 276.925781 192.667969 C 276.925781 193.304688 276.867188 193.933594 276.742188 194.558594 C 276.617188 195.183594 276.433594 195.792969 276.1875 196.378906 C 275.945312 196.96875 275.644531 197.527344 275.292969 198.058594 C 274.9375 198.585938 274.535156 199.078125 274.085938 199.527344 C 273.636719 199.980469 273.144531 200.382812 272.617188 200.734375 C 272.085938 201.089844 271.527344 201.386719 270.9375 201.632812 C 270.347656 201.875 269.742188 202.058594 269.117188 202.183594 C 268.492188 202.308594 267.863281 202.371094 267.222656 202.371094 C 266.585938 202.371094 265.957031 202.308594 265.332031 202.183594 C 264.707031 202.058594 264.101562 201.875 263.511719 201.632812 C 262.921875 201.386719 262.363281 201.089844 261.832031 200.734375 C 261.304688 200.382812 260.8125 199.980469 260.363281 199.527344 C 259.914062 199.078125 259.511719 198.585938 259.15625 198.058594 C 258.804688 197.527344 258.503906 196.96875 258.261719 196.378906 C 258.015625 195.792969 257.832031 195.183594 257.707031 194.558594 C 257.582031 193.933594 257.519531 193.304688 257.519531 192.667969 C 257.519531 192.03125 257.582031 191.398438 257.707031 190.773438 C 257.832031 190.148438 258.015625 189.542969 258.261719 188.953125 C 258.503906 188.367188 258.804688 187.804688 259.15625 187.277344 C 259.511719 186.746094 259.914062 186.257812 260.363281 185.804688 C 260.8125 185.355469 261.304688 184.953125 261.832031 184.597656 C 262.363281 184.246094 262.921875 183.945312 263.511719 183.703125 C 264.101562 183.457031 264.707031 183.273438 265.332031 183.152344 C 265.957031 183.027344 266.585938 182.964844 267.222656 182.964844 C 267.863281 182.964844 268.492188 183.027344 269.117188 183.152344 C 269.742188 183.273438 270.347656 183.457031 270.9375 183.703125 C 271.527344 183.945312 272.085938 184.246094 272.617188 184.597656 C 273.144531 184.953125 273.636719 185.355469 274.085938 185.804688 C 274.535156 186.257812 274.9375 186.746094 275.292969 187.277344 C 275.644531 187.804688 275.945312 188.367188 276.1875 188.953125 C 276.433594 189.542969 276.617188 190.148438 276.742188 190.773438 C 276.867188 191.398438 276.925781 192.03125 276.925781 192.667969 Z M 276.925781 192.667969 " fill-opacity="1" fill-rule="nonzero"/></g></svg>